<?xml version="1.0" encoding="UTF-8" standalone="no"?>
<!-- Created with Inkscape (http://www.inkscape.org/) -->

<svg
   xmlns:dc="http://purl.org/dc/elements/1.1/"
   xmlns:cc="http://creativecommons.org/ns#"
   xmlns:rdf="http://www.w3.org/1999/02/22-rdf-syntax-ns#"
   xmlns:svg="http://www.w3.org/2000/svg"
   xmlns="http://www.w3.org/2000/svg"
   xmlns:sodipodi="http://sodipodi.sourceforge.net/DTD/sodipodi-0.dtd"
   xmlns:inkscape="http://www.inkscape.org/namespaces/inkscape"
   width="120mm"
   height="120mm"
   viewBox="-60 -60 120 120"
   sodipodi:docname="icon.svg"
   version="1.1"
   id="svg12639"
   inkscape:export-filename="C:\Users\لينة حاتم كلودة\Google Drive\lina\LK Branding\logo1.png"
   inkscape:export-xdpi="299.68213"
   inkscape:export-ydpi="299.68213"
   inkscape:version="0.92.1 r15371">
  <defs
     id="defs12641">
    <linearGradient
       x1="0"
       y1="0"
       x2="1"
       y2="0"
       gradientUnits="userSpaceOnUse"
       gradientTransform="matrix(-268.11105,-268.11105,268.11105,-268.11105,704.31836,252.89941)"
       spreadMethod="pad"
       id="linearGradient4381">
      <stop
         style="stop-opacity:1;stop-color:#6600ff"
         offset="0"
         id="stop4377" />
      <stop
         style="stop-opacity:1;stop-color:#ffcc00"
         offset="1"
         id="stop4379" />
    </linearGradient>
    <linearGradient
       x1="0"
       y1="0"
       x2="1"
       y2="0"
       gradientUnits="userSpaceOnUse"
       gradientTransform="matrix(-268.11105,-268.11105,268.11105,-268.11105,704.31836,252.89941)"
       spreadMethod="pad"
       id="linearGradient4381-6">
      <stop
         style="stop-opacity:1;stop-color:#fcca07"
         offset="0"
         id="stop4377-3" />
      <stop
         style="stop-opacity:1;stop-color:#f339c7"
         offset="1"
         id="stop4379-0" />
    </linearGradient>
  </defs>
  <sodipodi:namedview
     pagecolor="#ffffff"
     bordercolor="#666666"
     borderopacity="1.0"
     inkscape:pageopacity="0.0"
     inkscape:pageshadow="2"
     inkscape:zoom="1.190244"
     inkscape:cx="35.836686"
     inkscape:cy="236.37837"
     inkscape:document-units="mm"
     inkscape:current-layer="Template"
     showgrid="false"
     units="mm"
     showguides="true"
     inkscape:guide-bbox="true"
     inkscape:snap-global="true"
     inkscape:snap-bbox="true"
     inkscape:snap-bbox-midpoints="true"
     inkscape:window-width="1920"
     inkscape:window-height="1001"
     inkscape:window-x="-9"
     inkscape:window-y="-9"
     inkscape:window-maximized="1"
     inkscape:bbox-paths="true"
     inkscape:bbox-nodes="true"
     inkscape:snap-bbox-edge-midpoints="true"
     inkscape:snap-grids="true"
     id="namedview12629">
    <sodipodi:guide
       orientation="1,0"
       position="226.771653543,226.771653543"
       id="guide2827"
       inkscape:locked="false" />
    <sodipodi:guide
       orientation="0,1"
       position="226.771653543,226.771653543"
       id="guide2829"
       inkscape:locked="false" />
    <inkscape:grid
       type="xygrid"
       id="grid3072"
       empspacing="10"
       visible="true"
       enabled="true"
       snapvisiblegridlinesonly="true"
       units="mm"
       dotted="false"
       spacingx="0.1mm"
       spacingy="0.1mm" />
  </sodipodi:namedview>
  <metadata
     id="metadata2822">
    <rdf:RDF>
      <cc:Work
         rdf:about="">
        <dc:format>image/svg+xml</dc:format>
        <dc:type
           rdf:resource="http://purl.org/dc/dcmitype/StillImage" />
        <dc:title />
      </cc:Work>
    </rdf:RDF>
  </metadata>
  <g
     inkscape:label="Layer 1"
     inkscape:groupmode="layer"
     id="Template"
     style="fill:none;stroke:#000000;stroke-width:0.05">
    <g
       id="g41929"
       transform="matrix(-1.1991619,-0.20444258,0.20444258,-1.1991619,290.02627,175.36685)"
       style="fill:#ffcc00;fill-opacity:1;stroke-width:0.51653862"
       inkscape:export-filename="C:\Users\لينة حاتم كلودة\Google Drive\lina\LK Branding\فلسفة الشعار.png"
       inkscape:export-xdpi="299.68213"
       inkscape:export-ydpi="299.68213">
      <g
         id="g41931"
         style="fill:#ffcc00;fill-opacity:1;stroke-width:0.51653862">
        <g
           id="g41937"
           style="fill:#ffcc00;fill-opacity:1;stroke-width:0.51653862">
          <g
             id="g41939"
             style="fill:#ffcc00;fill-opacity:1;stroke-width:0.51653862">
            <path
               d="m 246.12486,126.50992 c -1.174,0.865 -2.376,1.691 -3.615,2.475 v 0 c -0.898,0.567 -1.819,1.087 -2.747,1.593 v 0 c -2.776,2.571 -10.267,8.628 -21.386,10.973 v 0 c 0,0 9.629,-7.402 20.696,-11.492 v 0 c 1.251,-0.858 2.461,-1.779 3.654,-2.683 v 0 c 1.094,-0.829 2.179,-1.67 3.251,-2.526 v 0 c -3.568,1.652 -12.406,5.007 -23.49,3.913 v 0 c 0,0 12.299,-4.476 24.544,-4.764 v 0 c 0.923,-0.756 1.834,-1.524 2.728,-2.312 v 0 c 0.929,-0.816 1.838,-1.654 2.737,-2.505 v 0 c -3.804,1.703 -12.399,4.779 -23.08,3.726 v 0 c 0,0 12.038,-4.383 24.154,-4.754 v 0 c 1.407,-1.368 2.78,-2.776 4.114,-4.218 v 0 c -4.235,1.735 -12.21,4.18 -21.903,3.222 v 0 c 0,0 11.456,-4.168 23.264,-4.717 v 0 c 1.214,-1.357 2.399,-2.736 3.549,-4.142 v 0 c 0.221,-0.27 0.438,-0.544 0.658,-0.815 v 0 c -2.18475,0.6786 -5.51047,1.50406 -9.59319,1.86232 -3.81082,0.3344 -8.28117,0.26175 -13.09881,-0.71732 v 0 c 0,0 11.827,-2.981 23.635,-2.323 v 0 c 1.505,-1.901 2.969,-3.836 4.396,-5.799 v 0 c -3.194,1.176 -12.798,4.092 -24.423,1.729 v 0 c 0,0 12.616,-3.178992 24.794,-2.243998 v 0 c 1.373,-1.90399 2.709,-3.83199 4.014,-5.78499 v 0 c -4.613,1.531 -15.05,4.129 -27.447,1.611 v 0 c 0,0 14.174,-3.573 28.172,-2.701 v 0 c 1.217,-1.845 2.407,-3.709 3.569,-5.588 v 0 c -4.827,1.549 -15.715,4.176 -28.623,1.708 v 0 c 0,0 14.734,-3.612 29.302,-2.814 v 0 c 1.27,-2.075 2.51,-4.167 3.719,-6.27 v 0 c -5.219,1.665 -16.303,4.242 -29.393,1.612 v 0 c 0,0 12.73971,-3.193788 26.48793,-3.072036 1.21849,0.01079 2.4449,0.04763 3.67107,0.115036 v 0 c 0.172,-0.304 0.346,-0.605 0.517,-0.909 v 0 c 1.015,-1.806 2.007,-3.627 2.966,-5.465 v 0 c -4.87,1.856 -16.759,5.469 -31.213,3.348 v 0 c 0,0 15.917,-4.639 31.754,-4.393 v 0 c 0.935,-1.816 1.837,-3.647 2.704,-5.495 v 0 c -5.478,1.921 -16.621,4.838 -29.943,2.882 v 0 c 0,0 15.184,-4.425 30.645,-4.401 v 0 c 1.009,-2.208 1.964,-4.438 2.858,-6.692 v 0 c -4.994,2.256 -17.421,6.938 -32.966,6.048 v 0 c 0,0 16.573,-5.993 33.379,-7.1 v 0 c 0.064,-0.164 1.26981,-4.094121 1.33281,-4.258121 v 0 l 2.87329,0.850011 -1.3191,2.91711 c -0.34,0.883 -0.689,1.761 -1.047,2.637 v 0 c 2.022,4.055 7.117,15.56 8.048,30.237 v 0 c 0,0 -5.884,-14.352 -8.463,-29.233 v 0 c -0.653,1.559 -1.333,3.107 -2.04,4.643 v 0 c -0.18899,0.472748 -0.23709,0.384233 -0.083,0.182 v 0 c -0.268,0.58 -0.541,1.156 -0.817,1.732 v 0 c 1.731,3.411 6.58,14.06 7.449,27.742 v 0 c 0,0 -5.478,-13.362 -7.773,-27.059 v 0 c -0.917,1.898 -1.875,3.777 -2.862,5.639 v 0 c 2.178,3.963 6.837,14.153 5.891,27.380988 v 0 c 0,0 -5.374,-12.442988 -6.718,-25.841988 v 0 c -1.108,2.047 -2.255,4.076 -3.433,6.083 v 0 c 1.766,3.445 6.034,13.325 4.588,25.996988 v 0 c 0,0 -1.42525,-3.7228 -2.79928,-9.201965 -1.10917,-4.422967 -2.18495,-9.99043 -2.45072,-15.668023 v 0 c -1.155,1.947 -2.337,3.874 -3.541,5.786 v 0 c 1.298,3.076 5.109,13.691988 2.377,26.786988 v 0 c 0,0 -3.647,-12.996 -2.907,-25.945988 v 0 c -1.358,2.139 -2.751,4.254 -4.184,6.343 v 0 c 0.6,1.508 4.604,12.375988 1.045,25.632988 v 0 c 0,0 -1.91829,-8.70671 -1.69747,-18.61163 0.0501,-2.248324 0.21046,-4.558376 0.52847,-6.842358 v 0 c -1.54,2.237 -3.126,4.442996 -4.758,6.612988 v 0 c 0.768,2.418 3.628,12.975 -0.37,25.316 v 0 c 0,0 -2.14,-12.78 0.009,-24.837 v 0 c -1.394,1.84 -2.818,3.654 -4.28,5.439 v 0 c 0.332,2.007 1.653,12.256 -3.832,23.215 v 0 c 0,0 -0.181,-12.068 3.503,-22.815 v 0 c -1.618,1.964 -3.278,3.894 -4.984,5.785 v 0 c -0.099,0.111 -0.2,0.217 -0.299,0.327 v 0 c 0.14,2.167 0.409,12.398 -6.037,22.681 v 0 c 0,0 0.96,-11.881 5.579,-22.183 v 0 c -1.626,1.771 -3.303,3.492 -5.039,5.154 v 0 c -0.081,1.647 -0.935,13.012 -9.088,23.777 v 0 c 0,0 2.631,-12.922 8.835,-23.536 v 0 c -1.803,1.716 -3.662,3.371 -5.589,4.95 v 0 c -0.341,0.278 -0.683,0.552 -1.027,0.823 v 0 c -0.901,2.713 -4.68,12.535 -14.37,20.368 v 0 c 0,0 5.008,-10.539 12.738,-19.125"
               style="fill:#ffcc00;fill-opacity:1;stroke:none;stroke-width:0.51653862"
               id="path41957"
               inkscape:connector-curvature="0"
               sodipodi:nodetypes="cccccccccccccccccccccccccccccccccccsccccccccccccccccccccccccccsccccccccccccccccccccccccccccccccccccccccccccccccccccsccccccccccccsccccccccccccccccccccccccccccccccccc" />
          </g>
        </g>
      </g>
    </g>
  </g>
</svg>
