<?xml version="1.0" encoding="UTF-8" standalone="no"?>
<!-- Created with Inkscape (http://www.inkscape.org/) -->

<svg
   xmlns:dc="http://purl.org/dc/elements/1.1/"
   xmlns:cc="http://creativecommons.org/ns#"
   xmlns:rdf="http://www.w3.org/1999/02/22-rdf-syntax-ns#"
   xmlns:svg="http://www.w3.org/2000/svg"
   xmlns="http://www.w3.org/2000/svg"
   xmlns:xlink="http://www.w3.org/1999/xlink"
   xmlns:sodipodi="http://sodipodi.sourceforge.net/DTD/sodipodi-0.dtd"
   xmlns:inkscape="http://www.inkscape.org/namespaces/inkscape"
   width="170mm"
   height="41mm"
   viewBox="0 0 170 41"
   version="1.1"
   id="SVGRoot"
   inkscape:version="0.92.1 r15371"
   sodipodi:docname="logo-linakaloda.svg">
  <sodipodi:namedview
     id="base"
     pagecolor="#ffffff"
     bordercolor="#666666"
     borderopacity="1.0"
     inkscape:pageopacity="0.0"
     inkscape:pageshadow="2"
     inkscape:zoom="1.5937255"
     inkscape:cx="277.48242"
     inkscape:cy="48.876363"
     inkscape:document-units="mm"
     inkscape:current-layer="layer1"
     showgrid="false"
     inkscape:window-width="1920"
     inkscape:window-height="1001"
     inkscape:window-x="-9"
     inkscape:window-y="-9"
     inkscape:window-maximized="1" />
  <defs
     id="defs8244">
    <linearGradient
       inkscape:collect="always"
       id="linearGradient8114">
      <stop
         style="stop-color:#6600ff;stop-opacity:1"
         offset="0"
         id="stop8110" />
      <stop
         style="stop-color:#ffcc00;stop-opacity:1"
         offset="1"
         id="stop8112" />
    </linearGradient>
    <linearGradient
       inkscape:collect="always"
       xlink:href="#linearGradient8114"
       id="linearGradient8207"
       x1="19.22831"
       y1="149.18706"
       x2="192.51866"
       y2="149.18706"
       gradientUnits="userSpaceOnUse" />
  </defs>
  <metadata
     id="metadata8247">
    <rdf:RDF>
      <cc:Work
         rdf:about="">
        <dc:format>image/svg+xml</dc:format>
        <dc:type
           rdf:resource="http://purl.org/dc/dcmitype/StillImage" />
        <dc:title />
      </cc:Work>
    </rdf:RDF>
  </metadata>
  <g
     id="layer1"
     inkscape:groupmode="layer"
     inkscape:label="Layer 1">
    <g
       id="g8939"
       style="fill-opacity:1;fill:#ffffff">
      <path
         inkscape:connector-curvature="0"
         id="path8118"
         style="font-style:normal;font-variant:normal;font-weight:normal;font-stretch:normal;font-size:40.55795288px;line-height:1.25;font-family:'Srikandy Script';-inkscape-font-specification:'Srikandy Script';letter-spacing:0px;word-spacing:0px;fill:#ffffff;fill-opacity:1;stroke:none;stroke-width:0.97870517"
         d="m 32.084593,4.3524914 c 2.074852,0.5872229 1.996553,3.1318554 0.743809,5.0501204 -0.626367,0.9787042 0.46978,1.9182642 1.135302,0.9395602 1.918265,-2.8186806 1.057003,-6.5377588 -1.761669,-7.2815692 -2.701229,-0.7438192 -5.32416,0.8221174 -7.203271,3.3275875 -2.779527,3.6799337 -3.679933,8.0253887 -4.580341,12.2142547 -0.548077,2.427182 -1.526782,7.046675 -2.62293,10.021935 -2.740373,-1.29189 -5.285006,-1.526783 -7.320714,0.587223 -1.68337,1.761667 -1.1744453,4.541186 1.057003,5.559045 2.857817,1.291888 5.793931,0 8.02538,-2.309746 4.149713,3.053564 9.513017,7.359866 13.975915,6.929239 1.76166,-0.156597 3.210154,-0.782972 4.149704,-2.15316 0.587224,-0.861251 -0.508924,-1.565927 -1.017848,-0.822115 -0.782964,1.135298 -1.722525,2.153158 -3.17101,2.231455 -2.936114,0.195741 -7.868792,-5.050121 -12.409978,-8.103677 1.839967,-2.857824 2.936114,-7.594753 3.562482,-11.000647 0.782963,-3.875675 1.291897,-7.751349 2.89697,-11.3529845 1.174445,-2.6229218 2.857815,-4.3062923 4.541196,-3.8365211 z M 11.884111,33.478758 c -1.252735,-0.469779 -1.683371,-2.270592 -0.704666,-3.56249 1.213599,-1.644225 3.249307,-0.939561 5.754787,0.66552 -1.213592,2.309747 -2.857817,3.719079 -5.050121,2.89697 z" />
      <path
         id="path8120"
         style="font-style:normal;font-variant:normal;font-weight:normal;font-stretch:normal;font-size:40.55795288px;line-height:1.25;font-family:'Srikandy Script';-inkscape-font-specification:'Srikandy Script';letter-spacing:0px;word-spacing:0px;fill:#ffffff;fill-opacity:1;stroke:none;stroke-width:0.90185541"
         d="m 32.704084,20.257531 c 2.308751,0.79363 3.282759,-2.525197 1.190447,-3.17453 -2.236598,-0.577191 -3.210598,2.489113 -1.190447,3.17453 z m -1.623341,12.373451 c 2.344826,0.07214 3.354902,-3.066304 6.276919,-6.38513 v -1.010085 c -3.318835,3.427055 -4.653578,6.565509 -5.735806,6.312987 -1.082227,-0.324668 1.406894,-5.952244 1.515123,-7.106615 0.144296,-1.479046 -1.515123,-3.932093 -2.561274,-2.633418 -1.587266,1.948008 -2.12838,5.050386 -2.092304,7.53951 0.03611,1.370818 0.721485,3.17453 2.597342,3.282751 z"
         inkscape:connector-curvature="0" />
      <path
         id="path8122"
         style="font-style:normal;font-variant:normal;font-weight:normal;font-stretch:normal;font-size:40.55795288px;line-height:1.25;font-family:'Srikandy Script';-inkscape-font-specification:'Srikandy Script';letter-spacing:0px;word-spacing:0px;fill:#ffffff;fill-opacity:1;stroke:none;stroke-width:0.90185541"
         d="m 39.286503,31.729126 c 0.108218,-1.190448 1.298665,-4.545349 1.695484,-6.132616 0.974008,-1.190447 3.066312,-2.958085 3.85994,-3.571341 -0.901847,2.344818 -2.128379,4.833938 -2.092303,7.323062 0.03611,1.370818 0.757561,3.607417 2.633417,3.715644 2.344826,0.07214 3.030236,-3.499197 5.952244,-6.818023 v -1.010085 c -3.318818,3.427055 -4.328903,6.998405 -5.41113,6.745881 -1.082228,-0.324666 1.515113,-6.962319 1.623342,-8.116699 0.144295,-1.479047 -1.118304,-3.463122 -2.561274,-2.633418 -0.974,0.541115 -2.633409,2.020161 -3.932084,3.282751 -0.252523,-1.479038 -1.948008,-3.318827 -2.705569,-2.056227 -1.479047,2.380902 -1.731561,5.01432 -1.731561,7.719881 0.07214,2.200531 2.380903,3.318824 2.669494,1.55119 z"
         inkscape:connector-curvature="0" />
      <path
         id="path8124"
         style="font-style:normal;font-variant:normal;font-weight:normal;font-stretch:normal;font-size:40.55795288px;line-height:1.25;font-family:'Srikandy Script';-inkscape-font-specification:'Srikandy Script';letter-spacing:0px;word-spacing:0px;fill:#ffffff;fill-opacity:1;stroke:none;stroke-width:0.90185541"
         d="m 59.945191,32.630982 c 2.344823,0.07214 3.030235,-3.066304 5.952246,-6.38513 v -1.010085 c -3.318828,3.427055 -4.328907,6.565509 -5.411135,6.312987 -1.082224,-0.324668 1.406895,-5.952244 1.515118,-7.106615 0.144298,-1.479046 -1.515118,-3.932093 -2.561267,-2.633418 -0.541115,0.649334 -0.937932,1.479038 -1.2626,2.344819 -1.154372,2.128379 -2.885938,5.59151 -4.220681,5.411138 -1.010075,-0.108227 0.577191,-5.050396 1.911932,-6.024396 1.01008,-0.793637 1.659414,-0.396819 1.551191,0.180372 -0.07216,0.252514 -0.649334,0.721485 -0.288591,0.973999 0.360739,0.324676 0.649332,-0.541113 0.685407,-0.937924 0,-1.948008 -2.922006,-2.272674 -4.689643,-0.937932 -1.73157,1.226523 -2.236608,3.066312 -2.200532,4.870016 0.03611,1.767638 1.082228,2.885942 2.453047,2.958092 1.44297,0.03602 2.885938,-1.767637 4.11246,-3.751721 -0.108223,0.829706 -0.144297,1.659408 -0.144297,2.453047 0.03607,1.370818 0.721484,3.17453 2.597345,3.282751 z"
         inkscape:connector-curvature="0" />
      <path
         inkscape:connector-curvature="0"
         id="path8126"
         style="font-style:normal;font-variant:normal;font-weight:normal;font-stretch:normal;font-size:40.55795288px;line-height:1.25;font-family:'Srikandy Script';-inkscape-font-specification:'Srikandy Script';letter-spacing:0px;word-spacing:0px;fill:#ffffff;fill-opacity:1;stroke:none;stroke-width:0.97870517"
         d="m 90.387397,21.841311 c -0.430636,-1.252744 -1.370188,-2.231448 -2.701231,-2.740382 1.996565,-1.879112 2.936124,-5.167564 4.032271,-8.02538 0.900409,-2.2705933 1.565929,-5.0501114 3.366741,-6.6160392 1.174445,-1.0178582 2.505486,-0.9395601 3.210161,-0.3523372 1.01784,0.8612531 0.900415,2.6620752 -0.195741,4.6586295 -0.626376,1.1353101 0.74382,2.1531599 1.409322,1.0570118 1.4485,-2.388045 1.17446,-5.2067166 -0.704647,-6.4594517 -1.057021,-0.7046745 -2.740391,-0.7829727 -4.188864,0.2740303 -2.309747,1.6833704 -3.288454,4.8935329 -4.228012,7.3598675 -1.057005,2.857816 -1.996564,6.067969 -3.523338,7.829638 -0.587231,-0.156587 -1.213591,-0.234895 -1.918264,-0.234895 0.822115,-3.83652 1.291897,-7.829638 0.939549,-11.2355322 -0.234876,-2.1139971 -1.056992,-3.9539639 -2.936115,-4.1105603 -2.466332,-0.078271 -3.28845,2.7012289 -6.146264,6.1854216 -2.740374,3.3667409 -5.950527,4.5020329 -8.260271,4.6194849 -0.743816,0.03923 -0.743816,0.822117 -0.03915,0.822117 1.839967,0 5.441602,-0.939569 8.299419,-4.032271 3.249305,-3.5233369 4.423751,-6.7726439 5.559043,-6.4203066 0.822115,0.274039 0.743818,2.1531505 0.391488,4.2671565 -0.861269,5.6373341 -2.153159,11.7444571 -3.797377,17.0294721 -0.743818,2.544634 -3.679936,11.392121 -7.164126,9.787048 -1.331038,-0.587222 -2.192297,-2.818672 -1.370186,-5.245861 0.978704,-2.818672 3.171005,-4.736928 6.342008,-4.462897 0.704666,0.07827 0.900407,-0.822109 -0.156591,-0.900407 -2.975265,-0.195741 -6.185417,1.879111 -7.320717,5.245861 -0.900406,2.779519 -0.117443,5.637343 2.153154,6.655193 5.206712,2.388037 9.6696,-5.480748 11.509574,-10.883196 0.54807,-1.644234 1.09615,-3.484192 1.56593,-5.402457 0.587222,-0.03923 1.096146,-0.156588 1.60507,-0.391482 0.234897,0.313183 0.430637,0.704665 0.626379,1.213599 1.174444,3.562482 -0.900407,7.203262 -0.66553,10.687454 0.19574,2.662085 1.565936,4.032271 3.445046,4.110562 2.544633,0.07827 4.697784,-4.658629 7.829637,-8.260267 v -1.096156 c -3.562481,3.719087 -6.146256,8.612602 -7.281557,8.181986 -0.665521,-0.27404 -0.861262,-1.487639 -0.46978,-3.758234 0.508925,-3.327596 1.879111,-6.107122 0.782963,-9.35642 z m -5.793942,-1.761677 0.195741,-0.665512 c 0.35234,0.03922 0.626378,0.156595 0.900408,0.352336 -0.313176,0.156588 -0.704667,0.27404 -1.096149,0.313176 z" />
      <path
         inkscape:connector-curvature="0"
         id="path8128"
         style="font-style:normal;font-variant:normal;font-weight:normal;font-stretch:normal;font-size:40.55795288px;line-height:1.25;font-family:'Srikandy Script';-inkscape-font-specification:'Srikandy Script';letter-spacing:0px;word-spacing:0px;fill:#ffffff;fill-opacity:1;stroke:none;stroke-width:0.90185541"
         d="m 105.18786,33.942127 c 2.34481,0.07214 3.03023,-3.066304 5.95224,-6.385132 v -1.010083 c -3.31882,3.427055 -4.3289,6.56551 -5.41113,6.312986 -1.08222,-0.324666 1.4069,-5.952244 1.51512,-7.106614 0.14429,-1.479047 -1.51512,-3.932092 -2.56126,-2.633417 -0.54112,0.649332 -0.93795,1.479037 -1.2626,2.344817 -1.15439,2.128379 -2.88595,5.59151 -4.220695,5.411139 -1.010084,-0.108227 0.57719,-5.050396 1.911935,-6.024395 1.01008,-0.793638 1.65941,-0.396819 1.5512,0.180371 -0.0721,0.252514 -0.64934,0.721485 -0.2886,0.974 0.36075,0.324675 0.64933,-0.541115 0.68542,-0.937924 0,-1.948008 -2.92202,-2.272675 -4.689669,-0.937933 -1.73156,1.226523 -2.236598,3.066311 -2.200522,4.870016 0.03611,1.767638 1.082228,2.885942 2.453055,2.958093 1.442966,0.03602 2.885936,-1.767638 4.112466,-3.751721 -0.10823,0.829705 -0.14431,1.659408 -0.14431,2.453045 0.0362,1.370819 0.72149,3.174531 2.59735,3.282752 z" />
      <path
         inkscape:connector-curvature="0"
         id="path8130"
         style="font-style:normal;font-variant:normal;font-weight:normal;font-stretch:normal;font-size:40.55795288px;line-height:1.25;font-family:'Srikandy Script';-inkscape-font-specification:'Srikandy Script';letter-spacing:0px;word-spacing:0px;fill:#ffffff;fill-opacity:1;stroke:none;stroke-width:0.90185541"
         d="m 114.61562,25.608988 c 1.83979,-2.128379 3.57135,-4.112463 5.15862,-6.709804 1.2626,-2.128379 4.29283,-7.034472 2.41697,-8.9464127 -1.33475,-1.2986661 -4.29282,0.072135 -7.03447,4.3289107 -1.15438,1.839781 -2.02016,3.607417 -2.81379,6.168691 -1.01007,3.210608 -3.6435,13.563905 1.1183,13.81642 2.34483,0.07214 3.13846,-3.39097 6.06047,-6.709798 v -1.010083 c -3.31883,3.427055 -4.43712,6.890175 -5.51936,6.637663 -0.50504,-0.144305 -0.54111,-1.587267 -0.39681,-2.958094 0.10821,-1.190446 0.50503,-3.174532 1.01007,-4.617493 z m 0.50504,-1.839789 c 1.83979,-5.735796 3.03024,-7.828108 3.82387,-9.487517 1.4069,-2.705569 2.3809,-3.57135 2.74164,-3.17453 1.15438,1.046151 -1.80371,5.8801 -2.63342,7.286994 -1.19045,1.948008 -2.52519,3.499197 -3.93209,5.375053 z" />
      <path
         inkscape:connector-curvature="0"
         id="path8132"
         style="font-style:normal;font-variant:normal;font-weight:normal;font-stretch:normal;font-size:40.55795288px;line-height:1.25;font-family:'Srikandy Script';-inkscape-font-specification:'Srikandy Script';letter-spacing:0px;word-spacing:0px;fill:#ffffff;fill-opacity:1;stroke:none;stroke-width:0.90185541"
         d="m 127.18467,25.861503 c 0.0721,-0.901857 -0.57718,-1.118295 -0.93793,-0.649333 -0.21645,-2.164456 -3.06631,-2.41697 -4.83395,-1.190447 -1.80371,1.226523 -2.81379,3.932083 -2.59734,5.807947 0.32466,2.669493 2.16445,3.571343 2.95809,3.679571 2.66948,0.396819 4.25675,-2.056237 5.01431,-4.761798 0.974,0.865782 2.63342,0.757562 4.50927,-1.190448 v -1.010083 c -3.17452,3.354902 -4.40105,2.056237 -4.11245,-0.685409 z m -5.01432,6.854099 c -0.72148,-0.18037 -0.79363,-1.803702 -0.32467,-3.390968 0.46897,-1.659418 1.58727,-3.823874 2.48912,-4.473206 1.01008,-0.793638 1.65942,-0.180372 1.5512,0.577189 -0.0362,0.252514 -0.64934,0.937924 -0.2886,1.226523 0.14431,0.108221 0.25252,0.03602 0.36075,-0.108228 0,0.46897 0.0721,0.937933 0.25251,1.298676 -0.64933,2.885941 -2.20052,5.30291 -4.04031,4.870014 z" />
      <path
         inkscape:connector-curvature="0"
         id="path8134"
         style="font-style:normal;font-variant:normal;font-weight:normal;font-stretch:normal;font-size:40.55795288px;line-height:1.25;font-family:'Srikandy Script';-inkscape-font-specification:'Srikandy Script';letter-spacing:0px;word-spacing:0px;fill:#ffffff;fill-opacity:1;stroke:none;stroke-width:0.90185541"
         d="m 140.46619,33.833906 c 2.34481,0.07214 3.03023,-2.958083 5.95224,-6.276911 v -1.010083 c -3.31883,3.427055 -4.3289,6.457291 -5.41113,6.204767 -0.50504,-0.144294 -0.64934,-0.937933 -0.54111,-2.308751 0.10822,-1.190447 0.43288,-2.741635 0.90185,-4.401053 1.80371,-2.12838 3.71565,-4.761797 5.26684,-7.359138 1.2626,-2.12838 4.50927,-7.467367 2.63341,-9.3792987 -1.33475,-1.2986663 -4.29283,0.072134 -7.03447,4.3289107 -1.15438,1.83978 -2.20053,4.25675 -2.99416,6.818024 -0.50504,1.587266 -1.37082,4.870016 -1.55118,7.828101 -1.47905,1.659416 -3.21061,3.210607 -4.11248,3.102386 -1.01007,-0.108227 0.82971,-5.375061 2.16447,-6.349061 1.01007,-0.793638 1.6594,-0.396819 1.55118,0.180371 -0.0721,0.252514 -0.64934,0.721485 -0.2886,0.973999 0.36075,0.324676 0.64934,-0.541113 0.68543,-0.937923 0,-1.948008 -2.74165,-1.911932 -4.58143,-0.685409 -1.62334,1.118294 -2.77773,3.210597 -2.74164,5.014312 0.0361,1.767635 1.26259,2.813788 2.63341,2.885939 1.22653,0.03611 3.06631,-1.262598 4.68966,-2.885939 0.0721,2.380902 0.75755,4.148539 2.77771,4.256757 z m 1.47903,-9.776116 0.75756,-2.41697 c 1.08223,-3.318826 2.5252,-6.349062 3.31883,-8.008471 1.40689,-2.705569 2.3809,-3.57135 2.74165,-3.174531 1.15437,1.046151 -2.02016,6.312987 -2.84987,7.719881 -1.15437,1.948008 -2.56128,4.004235 -3.96817,5.880091 z" />
      <path
         inkscape:connector-curvature="0"
         id="path8136"
         style="font-style:normal;font-variant:normal;font-weight:normal;font-stretch:normal;font-size:40.55795288px;line-height:1.25;font-family:'Srikandy Script';-inkscape-font-specification:'Srikandy Script';letter-spacing:0px;word-spacing:0px;fill:#ffffff;fill-opacity:1;stroke:none;stroke-width:0.90185541"
         d="m 155.00128,33.942127 c 2.34482,0.07214 3.03022,-3.066304 5.95224,-6.385132 v -1.010083 c -3.31882,3.427055 -4.32891,6.56551 -5.41113,6.312986 -1.08223,-0.324666 1.4069,-5.952244 1.51511,-7.106614 0.14431,-1.479047 -1.51511,-3.932092 -2.56127,-2.633417 -0.54111,0.649332 -0.93792,1.479037 -1.26258,2.344817 -1.15439,2.128379 -2.88595,5.59151 -4.22069,5.411139 -1.01009,-0.108227 0.57718,-5.050396 1.91193,-6.024395 1.01008,-0.793638 1.65941,-0.396819 1.55119,0.180371 -0.0721,0.252514 -0.64933,0.721485 -0.28859,0.974 0.36074,0.324675 0.64933,-0.541115 0.68541,-0.937924 0,-1.948008 -2.92202,-2.272675 -4.68965,-0.937933 -1.73156,1.226523 -2.2366,3.066311 -2.20053,4.870016 0.0361,1.767638 1.08223,2.885942 2.45305,2.958093 1.44297,0.03602 2.88593,-1.767638 4.11246,-3.751721 -0.10823,0.829705 -0.1443,1.659408 -0.1443,2.453045 0.0362,1.370819 0.72149,3.174531 2.59735,3.282752 z" />
    </g>
  </g>
</svg>
